# xmcd
#
# Track frame offsets:
#        150
#        12565
#        21437
#        32165
#        42492
#        51115
#        60682
#        71157
#        80057
#        89955
#        99530
#        109760
#        123072
#        134112
#        144252
#        153527
#        163702
#        174927
#        186387
#        196162
#        207550
#
# Disc length: 2918 seconds
#
# Revision: 0
# Processed by: cddbd v1.5.1PL2 Copyright (c) Steve Scherf et al.
# Submitted via: ExactAudioCopy v0.95a5
#
DISCID=3e0b6415
DTITLE=Smiley Lewis - Shame, Shame, Shame (Disc-4) New Orleans Gumbo
DYEAR=1900
DGENRE=Blues
TTITLE0=Mama Don't Like
TTITLE1=Shame, Shame, Shame
TTITLE2=Sweeter Words (Have Never Been Told)
TTITLE3=When Did You Leave Heaven
TTITLE4=You Are My Sunshine
TTITLE5=Go On Fool
TTITLE6=How Long
TTITLE7=Goin' To Jump And Shout
TTITLE8=I Wake Up Screaming
TTITLE9=Shiek Of Araby
TTITLE10=Bad Luck Blues
TTITLE11=School Days Are Back Again
TTITLE12=My Love Is Gone
TTITLE13=Li'l Liza Jane
TTITLE14=I Shall Not Be Moved
TTITLE15=Ain't Goin' There No More
TTITLE16=Last Night
TTITLE17=I Want To Be With Her
TTITLE18=Oh Red!
TTITLE19=Tell Me Who
TTITLE20=Stormy Monday Blues
EXTD=
EXTT0=
EXTT1=
EXTT2=
EXTT3=
EXTT4=
EXTT5=
EXTT6=
EXTT7=
EXTT8=
EXTT9=
EXTT10=
EXTT11=
EXTT12=
EXTT13=
EXTT14=
EXTT15=
EXTT16=
EXTT17=
EXTT18=
EXTT19=
EXTT20=
PLAYORDER=
